<?xml version="1.0" standalone="no"?>
<!DOCTYPE svg PUBLIC "-//W3C//DTD SVG 20010904//EN"
 "http://www.w3.org/TR/2001/REC-SVG-20010904/DTD/svg10.dtd">
<svg version="1.0" xmlns="http://www.w3.org/2000/svg"
 width="259.000000pt" height="194.000000pt" viewBox="0 0 259.000000 194.000000"
 preserveAspectRatio="xMidYMid meet">
<metadata>
Created by potrace 1.15, written by Peter Selinger 2001-2017
</metadata>
<g transform="translate(0.000000,194.000000) scale(0.100000,-0.100000)"
fill="#000000" stroke="none">
<path d="M425 1177 c-28 -24 -43 -85 -31 -132 4 -14 33 -55 66 -90 61 -66 80
-106 63 -134 -24 -39 -73 -18 -73 30 0 26 -4 29 -30 29 -28 0 -30 -3 -30 -35
0 -42 22 -90 45 -99 31 -11 100 -6 122 9 13 9 27 34 33 55 17 64 -1 110 -70
180 -49 50 -60 67 -60 94 0 64 61 74 68 12 3 -24 7 -27 35 -24 29 3 32 6 29
33 -1 17 -7 40 -13 51 -24 47 -110 59 -154 21z"/>
<path d="M604 1186 c-13 -33 0 -51 39 -54 l37 -3 0 -195 0 -194 35 0 35 0 0
195 0 195 35 0 c33 0 35 2 35 35 l0 35 -105 0 c-83 0 -107 -3 -111 -14z"/>
<path d="M866 1173 c-9 -42 -66 -406 -66 -420 0 -8 12 -13 29 -13 25 0 29 4
35 40 6 40 7 40 50 40 46 0 56 -10 56 -56 0 -21 5 -24 35 -24 19 0 35 3 35 8
0 4 -16 104 -35 222 -19 118 -35 218 -35 223 0 4 -22 7 -49 7 -46 0 -50 -2
-55 -27z"/>
<path d="M1060 971 l0 -231 35 0 35 0 0 95 c0 93 0 95 24 95 37 0 49 -25 54
-111 l5 -79 31 0 31 0 -3 87 c-3 65 -8 95 -21 113 -18 25 -18 27 0 49 29 36
27 141 -4 176 -20 24 -32 27 -105 32 l-82 6 0 -232z"/>
<path d="M1290 1165 c0 -33 2 -35 35 -35 l35 0 0 -195 0 -195 35 0 35 0 0 195
0 195 35 0 c33 0 35 2 35 35 l0 35 -105 0 -105 0 0 -35z"/>
<path d="M1520 1004 c0 -242 8 -263 102 -264 35 0 54 6 75 24 l28 24 3 207 3
206 -33 -3 -33 -3 -5 -195 -5 -195 -30 0 -30 0 -3 198 -2 197 -35 0 -35 0 0
-196z"/>
<path d="M1767 1193 c-4 -3 -7 -107 -7 -230 l0 -223 35 0 35 0 0 85 c0 84 0
85 25 85 38 0 92 25 104 48 15 28 14 161 -2 192 -7 14 -28 30 -47 37 -38 13
-133 17 -143 6z"/>
</g>
</svg>
