<?xml version="1.0" standalone="no"?>
<!DOCTYPE svg PUBLIC "-//W3C//DTD SVG 20010904//EN"
 "http://www.w3.org/TR/2001/REC-SVG-20010904/DTD/svg10.dtd">
<svg version="1.0" xmlns="http://www.w3.org/2000/svg"
 width="500.000000pt" height="229.000000pt" viewBox="0 0 500.000000 229.000000"
 preserveAspectRatio="xMidYMid meet">
<metadata>
Created by potrace 1.15, written by Peter Selinger 2001-2017
</metadata>
<g transform="translate(0.000000,229.000000) scale(0.100000,-0.100000)"
fill="#000000" stroke="none">
<path d="M840 1918 c-32 -31 -65 -78 -84 -117 -30 -64 -31 -71 -30 -196 0
-123 2 -135 36 -227 97 -263 304 -547 650 -890 l198 -198 308 0 307 1 -105 43
c-381 155 -730 406 -983 706 -196 234 -310 457 -324 639 -7 96 7 161 52 236
19 30 32 55 31 55 -2 0 -27 -23 -56 -52z"/>
<path d="M651 1771 c-189 -294 -208 -613 -57 -969 61 -145 36 -132 258 -132
l191 0 -27 33 c-249 307 -348 503 -376 745 -11 97 1 221 29 307 11 33 18 61
17 63 -2 1 -18 -20 -35 -47z"/>
<path d="M1732 1803 c-5 -10 -15 -40 -22 -66 -12 -46 -16 -50 -72 -74 -32 -14
-58 -32 -58 -39 0 -18 0 -18 54 6 25 10 46 17 46 14 0 -6 -61 -209 -140 -465
-26 -87 -53 -166 -59 -178 -8 -13 -26 -23 -51 -27 -22 -4 -45 -12 -51 -20 -8
-10 17 -12 143 -11 155 2 189 12 109 32 -67 17 -68 21 -32 143 l33 108 47 -24
c37 -19 56 -22 95 -18 109 12 213 90 273 203 62 114 65 207 12 268 -45 51
-103 69 -199 62 -44 -4 -80 -5 -80 -3 0 2 7 23 15 46 20 58 20 60 -20 60 -23
0 -37 -6 -43 -17z m212 -127 c18 -8 41 -24 50 -37 45 -65 -6 -246 -100 -359
-79 -94 -234 -90 -234 5 0 35 96 363 112 382 20 24 123 30 172 9z"/>
<path d="M2285 1702 c-40 -25 -125 -120 -125 -140 0 -10 22 7 54 41 30 31 60
57 67 57 21 0 3 -85 -55 -269 -31 -96 -56 -178 -56 -183 0 -5 17 -8 37 -6 36
3 38 5 63 73 61 162 195 375 237 375 7 0 15 -11 19 -24 8 -32 31 -40 60 -21
52 34 34 115 -26 115 -52 0 -145 -102 -209 -228 -12 -24 -24 -42 -26 -40 -2 2
7 39 20 81 49 152 24 220 -60 169z"/>
<path d="M2802 1703 c-56 -20 -151 -108 -182 -169 -16 -33 -26 -71 -28 -117
-4 -58 0 -75 23 -123 18 -37 40 -64 68 -82 111 -74 306 10 378 162 51 108 35
220 -42 293 -59 55 -130 67 -217 36z m148 -18 c42 -22 60 -63 60 -138 0 -219
-175 -407 -289 -312 -41 35 -55 84 -48 168 10 119 81 242 162 278 49 23 77 24
115 4z"/>
<path d="M3298 1691 c-47 -30 -134 -129 -123 -139 3 -4 29 17 57 46 49 50 71
62 83 43 3 -5 -22 -97 -55 -204 -33 -107 -60 -204 -60 -216 0 -17 6 -21 33
-21 31 0 35 3 46 43 7 23 37 89 67 147 82 162 203 298 242 274 9 -6 18 -22 20
-36 2 -14 -24 -114 -57 -222 -34 -108 -61 -199 -61 -202 0 -2 15 -4 34 -4 38
0 50 11 60 55 14 59 107 231 163 304 65 83 122 123 150 105 10 -6 19 -20 21
-31 2 -10 -24 -95 -58 -188 -79 -220 -78 -277 2 -260 44 10 168 133 167 166 0
23 -1 23 -22 -6 -30 -41 -96 -105 -108 -105 -25 0 -17 43 36 188 65 176 76
252 41 278 -70 51 -190 -32 -295 -204 -36 -58 -46 -66 -30 -24 27 72 40 154
29 188 -35 106 -157 48 -276 -132 -31 -46 -57 -84 -59 -84 -2 0 5 26 16 58 29
82 42 168 29 192 -15 27 -38 25 -92 -9z"/>
<path d="M2395 1043 c-17 -13 -50 -34 -75 -45 l-45 -21 37 -9 c24 -6 38 -17
42 -31 9 -34 7 -580 -3 -595 -4 -7 -21 -16 -36 -20 -16 -5 -30 -13 -33 -20 -3
-9 28 -12 118 -12 93 0 121 3 118 13 -3 6 -15 14 -29 15 -45 7 -49 18 -49 138
l0 114 28 -6 c15 -4 37 -11 50 -15 38 -14 125 -10 177 8 72 24 139 95 161 169
31 106 4 205 -74 276 -84 76 -177 85 -279 28 -29 -17 -55 -30 -58 -30 -3 0 -5
13 -5 29 0 40 -10 43 -45 14z m274 -48 c73 -40 111 -110 112 -206 1 -52 -29
-130 -64 -168 -51 -55 -141 -75 -211 -46 -57 24 -66 53 -66 218 0 128 2 147
20 169 47 60 133 74 209 33z"/>
<path d="M3168 1056 c-162 -47 -243 -215 -174 -361 47 -103 127 -154 236 -155
76 0 148 29 194 79 40 42 27 49 -25 11 -147 -103 -339 4 -339 189 l0 41 195 0
c219 0 217 -1 196 70 -14 47 -53 95 -92 115 -41 22 -136 27 -191 11z m151 -34
c33 -24 54 -66 46 -91 -3 -11 -20 -24 -37 -30 -37 -13 -254 -15 -262 -2 -3 5
5 28 17 52 44 85 167 122 236 71z"/>
<path d="M3661 1039 c-19 -16 -50 -34 -68 -40 -38 -12 -39 -30 -3 -36 13 -2
26 -6 29 -9 3 -3 7 -82 9 -175 4 -183 1 -195 -45 -201 -15 -2 -28 -9 -31 -15
-3 -10 25 -13 117 -13 72 0 121 4 121 10 0 5 -12 13 -27 16 -52 13 -53 15 -53
187 0 144 2 163 21 193 27 44 62 54 93 25 38 -36 86 -22 86 25 0 32 -26 54
-63 54 -36 0 -66 -18 -108 -64 l-28 -31 -1 47 c0 26 -3 49 -7 51 -5 3 -24 -8
-42 -24z"/>
<path d="M3945 1040 c3 -5 16 -10 29 -10 42 0 46 -16 46 -174 0 -168 9 -218
48 -259 73 -78 167 -78 269 1 29 21 34 22 39 8 3 -9 4 -28 2 -41 -6 -29 3 -31
40 -10 15 8 44 21 65 28 42 14 46 30 9 32 -13 0 -28 7 -33 15 -6 9 -9 97 -7
218 l3 202 -83 0 c-53 0 -81 -4 -77 -10 3 -5 17 -10 30 -10 50 0 55 -18 55
-191 0 -180 -7 -206 -64 -233 -42 -20 -118 -21 -155 -2 -49 26 -55 54 -59 259
l-4 187 -79 0 c-51 0 -78 -4 -74 -10z"/>
</g>
</svg>
