<?xml version="1.0" standalone="no"?>
<!DOCTYPE svg PUBLIC "-//W3C//DTD SVG 20010904//EN"
 "http://www.w3.org/TR/2001/REC-SVG-20010904/DTD/svg10.dtd">
<svg version="1.0" xmlns="http://www.w3.org/2000/svg"
 width="240.000000pt" height="240.000000pt" viewBox="0 0 240.000000 240.000000"
 preserveAspectRatio="xMidYMid meet">
<metadata>
Created by potrace 1.15, written by Peter Selinger 2001-2017
</metadata>
<g transform="translate(0.000000,240.000000) scale(0.100000,-0.100000)"
fill="#000000" stroke="none">
<path d="M730 2146 l0 -106 70 -46 70 -45 0 -105 0 -106 35 22 35 22 0 -155
c0 -84 3 -156 6 -160 3 -3 15 -1 25 6 17 11 19 26 19 177 l0 165 73 45 c39 24
87 55 104 68 25 19 34 21 38 11 3 -8 4 -143 2 -300 l-2 -285 240 -152 240
-152 3 127 c1 70 1 132 -1 137 -3 6 -61 47 -131 91 -111 71 -126 83 -126 108
l0 27 43 -27 c23 -14 79 -50 125 -80 45 -29 85 -53 87 -53 3 0 5 61 5 135 l0
135 -72 46 c-40 26 -95 61 -123 79 -50 32 -255 161 -287 180 -10 6 -115 72
-235 149 -120 76 -223 141 -230 143 -10 4 -13 -19 -13 -101z"/>
<path d="M1805 901 c-132 -34 -204 -167 -164 -302 44 -146 237 -204 372 -112
34 24 37 29 37 74 l0 49 -35 0 c-32 0 -35 -2 -35 -30 0 -27 -6 -34 -42 -50
-54 -24 -82 -25 -134 -1 -62 28 -89 73 -89 146 0 69 25 114 78 142 41 21 113
21 155 0 25 -14 32 -24 32 -47 0 -28 3 -30 36 -30 l35 0 -3 51 c-3 51 -4 52
-53 80 -54 30 -138 44 -190 30z"/>
<path d="M340 865 c0 -31 3 -35 25 -35 l25 0 0 -132 c0 -149 15 -199 69 -231
68 -40 175 -30 223 20 37 39 48 91 48 226 l0 117 25 0 c22 0 25 4 25 35 l0 35
-90 0 -90 0 0 -35 c0 -31 3 -35 25 -35 l25 0 0 -132 c-1 -139 -5 -154 -47
-176 -44 -24 -103 -7 -122 35 -6 13 -11 79 -11 148 l0 125 25 0 c22 0 25 4 25
35 l0 35 -90 0 -90 0 0 -35z"/>
<path d="M810 835 l0 -65 35 0 c32 0 35 2 35 30 0 29 2 30 45 30 l45 0 0 -155
0 -155 -30 0 c-28 0 -30 -3 -30 -35 l0 -35 95 0 95 0 0 35 c0 32 -2 35 -30 35
l-30 0 0 155 0 155 45 0 c43 0 45 -1 45 -30 0 -28 3 -30 35 -30 l35 0 0 65 0
65 -195 0 -195 0 0 -65z"/>
<path d="M1240 865 c0 -31 3 -35 25 -35 l25 0 0 -155 0 -155 -25 0 c-22 0 -25
-4 -25 -35 l0 -35 170 0 170 0 0 65 0 65 -35 0 c-32 0 -35 -2 -35 -30 l0 -30
-70 0 -70 0 0 65 0 65 70 0 70 0 0 30 0 30 -70 0 -70 0 0 60 0 61 68 -3 c66
-3 67 -3 66 -30 -1 -26 2 -28 37 -28 l39 0 0 65 0 65 -170 0 -170 0 0 -35z"/>
</g>
</svg>
