<?xml version="1.0" standalone="no"?>
<!DOCTYPE svg PUBLIC "-//W3C//DTD SVG 20010904//EN"
 "http://www.w3.org/TR/2001/REC-SVG-20010904/DTD/svg10.dtd">
<svg version="1.0" xmlns="http://www.w3.org/2000/svg"
 width="1000.000000pt" height="360.000000pt" viewBox="0 0 1000.000000 360.000000"
 preserveAspectRatio="xMidYMid meet">
<metadata>
Created by potrace 1.15, written by Peter Selinger 2001-2017
</metadata>
<g transform="translate(0.000000,360.000000) scale(0.100000,-0.100000)"
fill="#000000" stroke="none">
<path d="M1640 2363 c-27 -10 -50 -36 -50 -54 0 -17 306 -717 388 -889 20 -41
95 -207 167 -369 138 -311 157 -340 208 -327 14 3 32 12 40 20 17 18 697 1545
697 1567 0 9 -8 23 -17 31 -16 14 -109 16 -718 21 -385 4 -707 4 -715 0z"/>
<path d="M4731 1750 c-124 -26 -202 -123 -203 -254 0 -72 17 -118 62 -170 42
-48 99 -76 166 -83 103 -11 224 40 224 95 0 57 -34 65 -106 27 -87 -46 -170
-24 -212 56 -75 144 75 294 210 211 44 -27 70 -28 93 -2 61 67 -97 147 -234
120z"/>
<path d="M3106 1734 c-13 -13 -16 -43 -16 -177 0 -182 10 -220 69 -270 97 -81
282 -53 341 53 23 42 25 56 28 208 3 144 2 166 -14 183 -18 20 -50 24 -74 9
-12 -7 -16 -42 -20 -174 -5 -162 -5 -166 -31 -192 -18 -18 -41 -28 -73 -31
-42 -5 -48 -3 -81 30 l-35 35 0 154 c0 137 -2 157 -18 171 -23 21 -56 22 -76
1z"/>
<path d="M3608 1739 c-21 -12 -24 -62 -5 -77 7 -6 41 -12 75 -14 l62 -3 3
-183 c2 -180 3 -184 26 -203 13 -10 27 -19 31 -19 4 0 18 9 31 19 23 19 24 23
26 203 l3 183 62 3 c34 2 68 8 75 14 20 16 16 66 -6 78 -26 13 -360 13 -383
-1z"/>
<path d="M4102 1734 c-22 -15 -22 -19 -22 -234 0 -185 2 -221 16 -234 23 -24
335 -24 358 0 19 18 20 28 6 55 -10 17 -22 19 -140 19 l-130 0 0 55 0 55 101
0 c111 0 139 9 139 45 0 46 -22 55 -136 55 l-104 0 0 50 0 50 116 0 c131 0
154 7 154 50 0 19 -7 33 -19 40 -11 5 -85 10 -168 10 -118 0 -153 -3 -171 -16z"/>
<path d="M5046 1742 c-5 -9 199 -471 217 -489 6 -7 17 -9 23 -5 19 13 223 487
213 497 -6 5 -13 5 -19 -1 -5 -5 -50 -103 -99 -217 -50 -114 -94 -214 -99
-222 -6 -11 -37 51 -107 215 -89 206 -113 248 -129 222z"/>
<path d="M5617 1743 c-4 -3 -7 -116 -7 -250 l0 -243 180 0 c153 0 180 2 180
15 0 13 -25 15 -165 15 l-165 0 0 100 0 100 145 0 c138 0 145 1 145 20 0 19
-7 20 -145 20 l-145 0 0 95 c0 84 2 95 18 95 9 1 78 1 152 0 132 0 169 7 156
29 -8 12 -337 16 -349 4z"/>
<path d="M6075 1728 c-3 -13 -4 -124 -3 -248 3 -204 5 -225 20 -228 16 -3 18
14 20 217 l3 220 175 -219 c108 -135 181 -219 190 -217 13 2 15 37 16 237 1
128 0 240 -3 247 -3 7 -11 13 -19 13 -11 0 -14 -41 -16 -217 l-3 -217 -173
217 c-96 119 -180 217 -188 217 -7 0 -16 -10 -19 -22z"/>
<path d="M6595 1739 c-14 -22 6 -27 113 -28 l62 -1 0 -231 c0 -214 1 -230 18
-227 15 3 17 23 20 233 l2 230 76 -3 c73 -3 111 8 98 29 -8 13 -381 12 -389
-2z"/>
<path d="M7074 1736 c-4 -9 -5 -92 -2 -185 3 -166 4 -169 33 -216 69 -110 237
-128 327 -34 49 52 60 107 56 294 -2 125 -5 150 -18 150 -13 0 -16 -29 -20
-185 -3 -113 -10 -193 -17 -205 -61 -106 -230 -111 -295 -8 -21 35 -23 51 -28
217 -4 131 -8 181 -17 184 -7 2 -16 -4 -19 -12z"/>
<path d="M7627 1743 c-4 -3 -7 -116 -7 -250 0 -207 2 -243 15 -243 11 0 15 20
17 103 l3 102 80 3 80 2 82 -105 c73 -93 113 -126 113 -95 0 6 -31 51 -70 99
-38 49 -70 91 -70 94 0 3 24 16 53 30 41 19 58 33 71 62 38 80 -8 168 -101
194 -41 12 -256 15 -266 4z m314 -71 c21 -23 29 -43 29 -70 0 -84 -53 -112
-209 -112 l-111 0 0 109 c0 63 4 111 10 113 5 2 64 1 131 -2 l121 -5 29 -33z"/>
<path d="M8124 1737 c-2 -7 -3 -118 -2 -247 l3 -235 178 0 c110 0 178 4 180
10 1 6 -59 11 -160 13 l-163 2 0 100 0 99 143 3 c118 3 142 5 142 18 0 13 -24
15 -142 18 l-143 3 0 94 0 95 123 1 c67 1 128 1 136 -1 27 -3 61 11 61 25 0
13 -27 15 -175 15 -133 0 -177 -3 -181 -13z"/>
<path d="M8653 1735 c-60 -26 -90 -107 -62 -168 15 -33 68 -61 169 -88 98 -26
130 -51 130 -102 0 -110 -177 -141 -282 -50 -10 9 -24 13 -35 8 -16 -6 -13
-10 17 -36 46 -39 129 -63 191 -56 100 12 154 66 146 147 -6 57 -45 94 -124
115 -32 9 -75 20 -95 26 -90 24 -121 100 -65 156 22 22 37 28 89 31 52 3 71
-1 113 -22 47 -24 76 -22 60 4 -27 44 -183 65 -252 35z"/>
</g>
</svg>
