<?xml version="1.0" standalone="no"?>
<!DOCTYPE svg PUBLIC "-//W3C//DTD SVG 20010904//EN"
 "http://www.w3.org/TR/2001/REC-SVG-20010904/DTD/svg10.dtd">
<svg version="1.0" xmlns="http://www.w3.org/2000/svg"
 width="1277.000000pt" height="1280.000000pt" viewBox="0 0 1277.000000 1280.000000"
 preserveAspectRatio="xMidYMid meet">
<metadata>
Created by potrace 1.15, written by Peter Selinger 2001-2017
</metadata>
<g transform="translate(0.000000,1280.000000) scale(0.100000,-0.100000)"
fill="#000000" stroke="none">
<path d="M6108 12789 c-392 -20 -879 -94 -1293 -195 -1551 -382 -2789 -1251
-3692 -2591 -171 -253 -283 -443 -527 -899 -131 -246 -136 -271 -68 -336 20
-20 228 -180 462 -355 234 -176 540 -407 682 -514 288 -218 1088 -822 1566
-1183 383 -288 2899 -2183 3632 -2735 530 -398 670 -507 670 -521 0 -23 -196
-286 -345 -465 -122 -146 -392 -420 -536 -542 -684 -581 -1531 -969 -2410
-1103 -525 -79 -1141 -65 -1703 41 -59 11 -110 19 -112 17 -6 -7 108 -119 160
-158 82 -60 341 -230 471 -310 1361 -830 2837 -1110 4400 -834 787 139 1506
395 2150 764 154 88 518 332 655 439 421 328 835 749 1157 1176 264 350 484
703 695 1111 179 347 180 380 18 515 -30 25 -577 439 -1215 919 -638 481
-1322 996 -1520 1145 -198 149 -661 498 -1030 776 -368 277 -828 623 -1022
769 -193 146 -755 568 -1247 939 -493 371 -896 678 -896 681 0 8 129 176 224
290 1212 1467 2748 2061 4641 1794 61 -8 145 -22 189 -30 101 -18 99 -19 79
13 -35 53 -423 324 -708 494 -207 124 -259 152 -484 264 -951 473 -1961 680
-3043 624z"/>
</g>
</svg>
